<?xml version="1.0" encoding="iso-8859-1"?>
<!-- Generator: Adobe Illustrator 23.1.1, SVG Export Plug-In . SVG Version: 6.00 Build 0)  -->
<svg version="1.1" id="_x31_-outline-expand" xmlns="http://www.w3.org/2000/svg" xmlns:xlink="http://www.w3.org/1999/xlink"
	 x="0px" y="0px" viewBox="0 0 64 64" style="enable-background:new 0 0 64 64;" xml:space="preserve">
<path style="fill:#62C4C3;" d="M56,9c0,3.313-2.687,6-6,6c-3.313,0-6-2.687-6-6c0-3.313,2.687-6,6-6C53.313,3,56,5.687,56,9"/>
<polygon style="fill:#42A5B2;" points="46,36 43,49 37,58 42,62 50,51 53,41 "/>
<polygon style="fill:#42A5B2;" points="44,22 37,31 41,35 48,26 "/>
<path style="fill:#62C4C3;" d="M57,34.5l1,0.5l3-5l-4-2.286V19c0-2.209-1.791-4-4-4h-6c-2.209,0-4,1.791-4,4v12.029
	c0,3.183,1.264,6.235,3.515,8.486L55,48v13h6V46l-4-10V34.5z"/>
<path style="fill:#EF941D;" d="M13.972,59.392l-9.899-9.899l15.556-15.557c0.781-0.781,2.048-0.781,2.828,0l7.072,7.071
	c0.78,0.781,0.78,2.048,0,2.829L13.972,59.392z"/>
<path style="fill:#E0C494;" d="M4.072,49.493l-1.768,1.768c-0.586,0.586-0.586,1.535,0,2.121c0.586,0.586,1.536,0.586,2.122,0
	l1.768-1.768L4.072,49.493z"/>
<path style="fill:#E0C494;" d="M11.851,57.271l-1.768,1.768c-0.586,0.586-0.586,1.535,0,2.121s1.536,0.586,2.122,0l1.767-1.768
	L11.851,57.271z"/>
<path style="fill:#D36767;" d="M17,12c0,2.761-2.239,5-5,5c-2.761,0-5-2.239-5-5c0-2.761,2.239-5,5-5C14.761,7,17,9.239,17,12"/>
<path style="fill:#3A4249;" d="M61.929,45.628l-3.856-9.637c0.314-0.024,0.612-0.189,0.784-0.476l3-5
	c0.139-0.231,0.179-0.508,0.11-0.768c-0.068-0.26-0.238-0.482-0.471-0.615L58,27.134V19c0-2.201-1.439-4.054-3.419-4.72
	C56.06,12.996,57,11.107,57,9c0-3.86-3.14-7-7-7c-3.86,0-7,3.14-7,7c0,2.107,0.94,3.996,2.419,5.28C43.439,14.946,42,16.799,42,19
	v3.947l-5.789,7.439c-0.31,0.398-0.275,0.965,0.082,1.321l0.561,0.561l-7.326,7.325l-6.363-6.364c-1.134-1.133-3.11-1.133-4.243,0
	L3.365,48.786l-1.767,1.767c-0.473,0.472-0.733,1.1-0.733,1.768s0.26,1.296,0.733,1.768c0.472,0.472,1.099,0.732,1.767,0.732
	s1.296-0.26,1.768-0.732l1.06-1.061l4.244,4.243l-1.062,1.061c-0.974,0.975-0.974,2.561,0,3.535
	c0.473,0.472,1.101,0.732,1.769,0.732c0.667,0,1.295-0.26,1.767-0.732l1.768-1.768l15.557-15.556
	c0.92-0.921,1.104-2.291,0.576-3.405l7.456-7.456l2.025,2.025C40.481,35.895,40.736,36,41,36c0.021,0,0.042,0,0.063-0.002
	c0.287-0.018,0.551-0.159,0.728-0.385l0.73-0.942c0.4,1.381,1.034,2.68,1.872,3.859l-2.326,10.067l-5.899,8.848
	c-0.288,0.432-0.198,1.012,0.207,1.336l5,4C41.554,62.923,41.774,63,42,63c0.044,0,0.089-0.003,0.133-0.009
	c0.271-0.036,0.515-0.182,0.676-0.403l8-11c0.066-0.091,0.116-0.192,0.149-0.3l1.368-4.548L54,48.414V61c0,0.552,0.448,1,1,1h6
	c0.552,0,1-0.448,1-1V46C62,45.873,61.976,45.747,61.929,45.628 M3.719,52.675c-0.196,0.194-0.512,0.194-0.707,0
	c-0.195-0.196-0.195-0.512,0-0.708l1.06-1.06l0.707,0.707L3.719,52.675z M10.79,60.453c-0.195-0.195-0.195-0.513,0-0.707
	l1.061-1.061l0.707,0.707l-1.061,1.061C11.302,60.647,10.985,60.648,10.79,60.453 M28.821,43.129L13.972,57.978l-8.486-8.485
	l14.85-14.849c0.377-0.378,1.036-0.378,1.414,0l7.071,7.07C29.211,42.104,29.211,42.739,28.821,43.129 M45,9c0-2.757,2.243-5,5-5
	c2.757,0,5,2.243,5,5s-2.243,5-5,5C47.243,14,45,11.757,45,9 M40.905,33.491l-2.573-2.574L42,26.203v4.827
	c0,0.331,0.023,0.658,0.048,0.986L40.905,33.491z M49.091,50.549l-7.284,10.016l-3.466-2.773l5.491-8.237
	c0.067-0.101,0.115-0.212,0.142-0.33l2.034-8.803l4.712,4.712L49.091,50.549z M60,60h-4V48c0-0.265-0.105-0.52-0.293-0.707
	l-8.49-8.49C45.143,36.728,44,33.968,44,31.03V19c0-1.654,1.346-3,3-3h6c1.654,0,3,1.346,3,3v6.991l-1.172-0.67l-1.879-5.637
	l-1.898,0.632l2,6c0.078,0.234,0.239,0.43,0.453,0.552l6.113,3.493l-1.998,3.33l-6.851-3.425l-3.854-8.672l-1.828,0.812l4,9
	c0.094,0.212,0.259,0.385,0.467,0.489L56,35.118V36c0,0.127,0.024,0.253,0.071,0.372L60,46.192V60z"/>
<rect x="13.964" y="45.5" transform="matrix(0.7071 -0.7071 0.7071 0.7071 -27.7548 25.9938)" style="fill:#3A4249;" width="7.071" height="2"/>
<path style="fill:#3A4249;" d="M4.072,14.268l-1.733,1l2,3.464l1.733-1l-0.5-0.866l1.807-1.043C8.278,16.907,9.553,17.666,11,17.91
	V20h-1v2h4v-2h-1v-2.09c1.447-0.244,2.722-1.003,3.621-2.087l1.807,1.043l-0.5,0.866l1.733,1l2-3.464l-1.733-1l-0.5,0.866
	l-1.81-1.046C17.86,13.437,18,12.735,18,12c0-0.735-0.14-1.437-0.382-2.088l1.81-1.046l0.5,0.866l1.733-1l-2-3.464l-1.733,1
	l0.5,0.866l-1.807,1.043C15.722,7.093,14.447,6.334,13,6.09V4h1V2h-4v2h1v2.09C9.553,6.334,8.278,7.093,7.379,8.177L5.572,7.134
	l0.5-0.866l-1.733-1l-2,3.464l1.733,1l0.5-0.866l1.81,1.046C6.14,10.563,6,11.265,6,12c0,0.735,0.14,1.437,0.382,2.088l-1.81,1.046
	L4.072,14.268z M12,8c2.206,0,4,1.794,4,4c0,2.206-1.794,4-4,4c-2.206,0-4-1.794-4-4C8,9.794,9.794,8,12,8"/>
<path style="fill:#3A4249;" d="M35.293,15.293l1.414,1.414l4-4c0.391-0.391,0.391-1.023,0-1.414l-4-4l-1.414,1.414L37.586,11H30v2
	h7.586L35.293,15.293z"/>
<rect x="26" y="11" style="fill:#3A4249;" width="2" height="2"/>
<rect x="22" y="11" style="fill:#3A4249;" width="2" height="2"/>
<rect x="21.586" y="40" transform="matrix(0.7071 -0.7071 0.7071 0.7071 -22.2548 28.272)" style="fill:#3A4249;" width="2.828" height="2"/>
</svg>
